<?xml version="1.0" encoding="iso-8859-1"?>
<!-- Generator: Adobe Illustrator 19.0.0, SVG Export Plug-In . SVG Version: 6.00 Build 0)  -->
<svg version="1.1" id="Capa_1" xmlns="http://www.w3.org/2000/svg" xmlns:xlink="http://www.w3.org/1999/xlink" x="0px" y="0px"
	 viewBox="0 0 480 480" style="enable-background:new 0 0 480 480;" xml:space="preserve">
<g>
	<path style="fill:#726658;" d="M216,368h56v48h-56V368z"/>
	<path style="fill:#726658;" d="M144,416c-8.837,0-16,7.163-16,16v16h224v-16c0-8.837-7.163-16-16-16H144z"/>
</g>
<path style="fill:#ACABB1;" d="M456,32H24c-8.837,0-16,7.163-16,16v32.664h464V48C472,39.163,464.837,32,456,32z"/>
<path style="fill:#B2D7F4;" d="M8,320h464V80.664H8V320z M104,280c-8.837,0-16-7.163-16-16s7.163-16,16-16s16,7.163,16,16
	S112.837,280,104,280z M176,280c-8.837,0-16-7.163-16-16s7.163-16,16-16s16,7.163,16,16S184.837,280,176,280z M64,112l8,32h128
	l-16,80H88l-16-80L64,112z"/>
<path style="fill:#ACABB1;" d="M8,352c0,8.837,7.163,16,16,16h432c8.837,0,16-7.163,16-16v-32H8V352z"/>
<g>
	<path style="fill:#FFBA60;" d="M184,224l16-80H72l16,80H184z"/>
	<circle style="fill:#FFBA60;" cx="104" cy="264" r="16"/>
	<circle style="fill:#FFBA60;" cx="176" cy="264" r="16"/>
</g>
<g>
	<path style="fill:#231F20;" d="M456,24H24C10.745,24,0,34.745,0,48v304c0,13.255,10.745,24,24,24h184v32h-64
		c-13.255,0-24,10.745-24,24v16c0,4.418,3.582,8,8,8h224c4.418,0,8-3.582,8-8v-16c0-13.255-10.745-24-24-24h-56v-32h176
		c13.255,0,24-10.745,24-24V48C480,34.745,469.255,24,456,24z M16,88.664h448V312H16V88.664z M24,40h432c4.418,0,8,3.582,8,8v24.664
		H16V48C16,43.582,19.582,40,24,40z M344,432v8H136v-8c0-4.418,3.582-8,8-8h192C340.418,424,344,427.582,344,432z M264,408h-40v-32
		h40V408z M456,360H24c-4.418,0-8-3.582-8-8v-24h448v24C464,356.418,460.418,360,456,360z"/>
	<path style="fill:#231F20;" d="M200,136H78.24l-6.48-25.936c-0.889-3.563-4.088-6.063-7.76-6.064H40c-4.418,0-8,3.582-8,8
		s3.582,8,8,8h17.752l22.4,105.6c0.761,3.728,4.043,6.405,7.848,6.4h96c3.802,0.001,7.08-2.675,7.84-6.4l16-80
		c0.884-4.329-1.909-8.555-6.238-9.438C201.075,136.054,200.538,136,200,136z M177.448,216H94.552l-12.8-64H190.24L177.448,216z"/>
	<path style="fill:#231F20;" d="M104,240c-13.255,0-24,10.745-24,24s10.745,24,24,24s24-10.745,24-24S117.255,240,104,240z M104,272
		c-4.418,0-8-3.582-8-8s3.582-8,8-8s8,3.582,8,8S108.418,272,104,272z"/>
	<path style="fill:#231F20;" d="M176,240c-13.255,0-24,10.745-24,24s10.745,24,24,24s24-10.745,24-24S189.255,240,176,240z M176,272
		c-4.418,0-8-3.582-8-8s3.582-8,8-8s8,3.582,8,8S180.418,272,176,272z"/>
	<path style="fill:#231F20;" d="M392,128H248c-4.418,0-8,3.582-8,8s3.582,8,8,8h144c4.418,0,8-3.582,8-8S396.418,128,392,128z"/>
	<path style="fill:#231F20;" d="M424,144h16c4.418,0,8-3.582,8-8s-3.582-8-8-8h-16c-4.418,0-8,3.582-8,8S419.582,144,424,144z"/>
	<path style="fill:#231F20;" d="M392,160H248c-4.418,0-8,3.582-8,8s3.582,8,8,8h144c4.418,0,8-3.582,8-8S396.418,160,392,160z"/>
	<path style="fill:#231F20;" d="M440,160h-16c-4.418,0-8,3.582-8,8s3.582,8,8,8h16c4.418,0,8-3.582,8-8S444.418,160,440,160z"/>
	<path style="fill:#231F20;" d="M392,192H248c-4.418,0-8,3.582-8,8s3.582,8,8,8h144c4.418,0,8-3.582,8-8S396.418,192,392,192z"/>
	<path style="fill:#231F20;" d="M440,192h-16c-4.418,0-8,3.582-8,8s3.582,8,8,8h16c4.418,0,8-3.582,8-8S444.418,192,440,192z"/>
	<path style="fill:#231F20;" d="M392,224H248c-4.418,0-8,3.582-8,8s3.582,8,8,8h144c4.418,0,8-3.582,8-8S396.418,224,392,224z"/>
	<path style="fill:#231F20;" d="M440,224h-16c-4.418,0-8,3.582-8,8s3.582,8,8,8h16c4.418,0,8-3.582,8-8S444.418,224,440,224z"/>
</g>
<g>
</g>
<g>
</g>
<g>
</g>
<g>
</g>
<g>
</g>
<g>
</g>
<g>
</g>
<g>
</g>
<g>
</g>
<g>
</g>
<g>
</g>
<g>
</g>
<g>
</g>
<g>
</g>
<g>
</g>
</svg>
